<svg xmlns="http://www.w3.org/2000/svg" xmlns:xlink="http://www.w3.org/1999/xlink" width="16" height="16" viewBox="0 0 16 16">
    <defs>
        <path id="a" d="M6 14.08C6 15.141 6.894 16 8 16c1.106 0 2-.859 2-1.92s-.894-1.92-2-1.92c-1.106 0-2 .859-2 1.92zM6 8c0 1.061.894 1.92 2 1.92 1.106 0 2-.859 2-1.92s-.894-1.92-2-1.92c-1.106 0-2 .859-2 1.92zm0-6.08c0 1.061.894 1.92 2 1.92 1.106 0 2-.859 2-1.92S9.106 0 8 0C6.894 0 6 .859 6 1.92z"/>
    </defs>
    <use fill="#9BADC6" fill-rule="evenodd" xlink:href="#a"/>
</svg>
